<svg width="1076" height="1076" viewBox="0 0 1076 1076" fill="none" xmlns="http://www.w3.org/2000/svg">
<path d="M915 537.5C915 617.563 900.029 685.102 870.088 740.116C840.147 794.896 799.738 836.45 748.861 864.776C697.983 892.868 641.253 906.915 578.669 906.915C515.635 906.915 458.68 892.751 407.803 864.425C357.15 835.864 316.854 794.194 286.913 739.414C257.197 684.4 242.339 617.095 242.339 537.5C242.339 457.437 257.197 390.015 286.913 335.235C316.854 280.22 357.15 238.667 407.803 210.575C458.68 182.248 515.635 168.085 578.669 168.085C641.253 168.085 697.983 182.248 748.861 210.575C799.738 238.667 840.147 280.22 870.088 335.235C900.029 390.015 915 457.437 915 537.5ZM721.846 537.5C721.846 494.425 716.331 458.139 705.3 428.642C694.494 398.911 678.398 376.437 657.011 361.22C635.85 345.769 609.736 338.044 578.669 338.044C547.603 338.044 521.376 345.769 499.99 361.22C478.828 376.437 462.732 398.911 451.701 428.642C440.895 458.139 435.492 494.425 435.492 537.5C435.492 580.575 440.895 616.978 451.701 646.709C462.732 676.206 478.828 698.68 499.99 714.131C521.376 729.347 547.603 736.956 578.669 736.956C609.736 736.956 635.85 729.347 657.011 714.131C678.398 698.68 694.494 676.206 705.3 646.709C716.331 616.978 721.846 580.575 721.846 537.5Z" fill="#3F00E7"/>
<path d="M859.483 537.5C859.483 617.563 843.938 685.102 812.847 740.116C781.757 794.896 739.796 836.45 686.966 864.776C634.136 892.868 575.227 906.915 510.241 906.915C444.788 906.915 385.646 892.751 332.816 864.425C280.219 835.864 238.375 794.194 207.285 739.414C176.428 684.4 161 617.095 161 537.5C161 457.437 176.428 390.015 207.285 335.235C238.375 280.22 280.219 238.667 332.816 210.575C385.646 182.248 444.788 168.085 510.241 168.085C575.227 168.085 634.136 182.248 686.966 210.575C739.796 238.667 781.757 280.22 812.847 335.235C843.938 390.015 859.483 457.437 859.483 537.5ZM658.915 537.5C658.915 494.425 653.187 458.139 641.733 428.642C630.512 398.911 613.798 376.437 591.591 361.22C569.617 345.769 542.501 338.044 510.241 338.044C477.982 338.044 450.749 345.769 428.541 361.22C406.568 376.437 389.854 398.911 378.399 428.642C367.179 458.139 361.568 494.425 361.568 537.5C361.568 580.575 367.179 616.978 378.399 646.709C389.854 676.206 406.568 698.68 428.541 714.131C450.749 729.347 477.982 736.956 510.241 736.956C542.501 736.956 569.617 729.347 591.591 714.131C613.798 698.68 630.512 676.206 641.733 646.709C653.187 616.978 658.915 580.575 658.915 537.5Z" fill="black"/>
</svg>
